<?xml version="1.0" encoding="iso-8859-1"?>

<!-- Generator: Adobe Illustrator 19.1.0, SVG Export Plug-In . SVG Version: 6.00 Build 0)  -->
<svg version="1.1" xmlns="http://www.w3.org/2000/svg" xmlns:xlink="http://www.w3.org/1999/xlink" x="0px" y="0px"
	 viewBox="0 0 356 100" style="enable-background:new 0 0 356 100;" xml:space="preserve">

	 <style>

	 	g#wheel{
	 	  -webkit-animation:spin 4s linear infinite;
	 	  -moz-animation:spin 4s linear infinite;
	 	  animation:spin 4s linear infinite;
	 	  transform-origin: 50% 50%;
	 	  -webkit-transform-origin: 50% 50%;
	 	  -moz-transform-origin: 50% 50%;
	 	}

		@-moz-keyframes spin { 100% { -moz-transform: rotate(360deg); } }
		@-webkit-keyframes spin { 100% { -webkit-transform: rotate(360deg); } }
		@keyframes spin { 100% { -webkit-transform: rotate(360deg); transform:rotate(360deg); } }

	 </style>

<g id="m_x5F_ov">
	<g>
		<g>
			<g>
				<path style="fill:#00A79D;" d="M88.138,23.673c-6.299,0-12.062,2.61-15.57,7.111c-1.979-4.502-6.93-7.111-13.41-7.111
					c-6.023,0-11.242,1.884-14.127,5.038l-1.167-2.878c-0.268-0.631-0.812-0.899-1.443-0.899H32.345
					c-0.812,0-1.261,0.449-1.261,1.254v46.971c0,0.812,0.449,1.261,1.261,1.261h16.02c0.804,0,1.253-0.449,1.253-1.261V45.534
					c0,0,0.812-5.038,5.944-5.038c2.696,0,4.407,1.797,4.407,5.668v26.994c0,0.812,0.449,1.261,1.261,1.261h16.012
					c0.812,0,1.261-0.449,1.261-1.261V45.534c-0.087,0,0.725-5.038,5.85-5.038c2.704,0,4.234,2.073,4.407,5.668v26.994
					c0,0.812,0.449,1.261,1.261,1.261h16.02c0.812,0,1.261-0.449,1.261-1.261v-29.69C107.303,31.052,100.192,23.673,88.138,23.673z"
					/>
			</g>
			<g>
				<path style="fill:#00A79D;" d="M230.84,16.412c-19.165,0-31.945,12.961-31.945,32.481c0,19.347,12.779,32.307,31.945,32.307
					s31.945-12.961,31.945-32.307C262.784,29.373,250.005,16.412,230.84,16.412z M230.84,63.202c-7.379,0-12.33-5.755-12.33-14.309
					c0-8.546,4.951-14.301,12.33-14.301c7.379,0,12.33,5.755,12.33,14.301C243.17,57.447,238.219,63.202,230.84,63.202z"/>
				<path style="fill:#00A79D;" d="M324.419,17.855h-20.064c-0.812,0-1.529,0.631-1.711,1.254l-9.453,36.982l-9.445-36.982
					c-0.181-0.623-0.899-1.254-1.711-1.254h-20.064c-0.717,0-1.167,0.631-0.899,1.254l20.608,59.569
					c0.173,0.631,0.899,1.261,1.616,1.261h19.796c0.718,0,1.443-0.631,1.616-1.261l20.608-59.569
					C325.586,18.486,325.136,17.855,324.419,17.855z"/>
			</g>
		</g>
	</g>
</g>
<g id="wheel">
	<path style="fill:#00A79D;" d="M175.644,61.061l10.201-18.574l-8.365-36.793l-13.103,23.895l-18.842-10.351l-36.202,9.003
		l23.233,12.63l-10.249,18.597l9.263,36.226l12.787-22.926l18.188,10.02l36.825-8.672L175.644,61.061z M176.74,14.579l5.802,26.663
		l-24.676,6.906L176.74,14.579z M132.441,86.817l-6.457-26.387l25.425-7.222L132.441,86.817z M118.282,28.754l26.347-6.267
		l7.032,25.039L118.282,28.754z M156.794,54.052l33.837,19.023l-26.844,6.031L156.794,54.052z"/>
</g>
</svg>
